<svg width="281" height="420" viewBox="0 0 281 420" fill="none" xmlns="http://www.w3.org/2000/svg">
<g clip-path="url(#clip0_101_2)">
<mask id="mask0_101_2" style="mask-type:luminance" maskUnits="userSpaceOnUse" x="0" y="0" width="281" height="420">
<path d="M281 0H0V420H281V0Z" fill="white"/>
</mask>
<g mask="url(#mask0_101_2)">
<path d="M10 10H271V333.187L140.5 408.456L10 333.187V10Z" fill="white" stroke="black" stroke-width="20"/>
</g>
<path d="M62 158.23V150.599H97.7543V158.23H84.4262V194.38H75.3282V158.23H62Z" fill="black"/>
<path d="M105.827 194.38H95.9634L110.992 150.599H122.854L137.861 194.38H127.998L117.093 160.603H116.753L105.827 194.38ZM105.21 177.171H128.508V184.397H105.21V177.171Z" fill="black"/>
<path d="M165.724 163.19C165.554 161.466 164.824 160.126 163.534 159.171C162.245 158.216 160.494 157.739 158.284 157.739C156.782 157.739 155.513 157.952 154.479 158.38C153.444 158.793 152.651 159.371 152.098 160.112C151.559 160.853 151.29 161.694 151.29 162.634C151.262 163.418 151.425 164.102 151.779 164.686C152.148 165.271 152.651 165.777 153.288 166.204C153.926 166.618 154.663 166.981 155.499 167.295C156.335 167.594 157.228 167.85 158.177 168.064L162.089 169.005C163.988 169.432 165.731 170.002 167.318 170.715C168.905 171.428 170.28 172.304 171.442 173.344C172.604 174.385 173.504 175.61 174.141 177.021C174.793 178.432 175.126 180.05 175.141 181.874C175.126 184.553 174.446 186.876 173.1 188.843C171.768 190.796 169.84 192.314 167.318 193.397C164.81 194.466 161.784 195 158.241 195C154.727 195 151.666 194.458 149.058 193.375C146.465 192.292 144.438 190.689 142.979 188.565C141.533 186.428 140.775 183.784 140.704 180.634H149.611C149.71 182.102 150.128 183.328 150.865 184.311C151.616 185.28 152.615 186.014 153.862 186.513C155.123 186.998 156.548 187.24 158.135 187.24C159.694 187.24 161.047 187.012 162.195 186.556C163.357 186.1 164.257 185.466 164.895 184.653C165.532 183.841 165.851 182.907 165.851 181.853C165.851 180.869 165.561 180.043 164.98 179.373C164.413 178.703 163.577 178.133 162.471 177.663C161.38 177.192 160.041 176.765 158.454 176.38L153.713 175.183C150.043 174.285 147.145 172.881 145.019 170.971C142.894 169.062 141.838 166.489 141.852 163.254C141.838 160.603 142.539 158.287 143.956 156.306C145.388 154.325 147.351 152.779 149.845 151.667C152.339 150.556 155.173 150 158.347 150C161.579 150 164.399 150.556 166.808 151.667C169.231 152.779 171.116 154.325 172.462 156.306C173.808 158.287 174.503 160.582 174.545 163.19H165.724Z" fill="black"/>
<path d="M181.332 194.38V150.599H190.536V169.903H191.11L206.776 150.599H217.809L201.653 170.202L218 194.38H206.989L195.064 176.38L190.536 181.938V194.38H181.332Z" fill="black"/>
<path d="M62 220H75.0239L88.7794 253.594H89.3648L103.12 220H116.144V270H105.901V237.456H105.486L92.5598 269.756H85.5844L72.6581 237.334H72.2435V270H62V220Z" fill="black"/>
<path d="M133.455 270H122.138L139.381 220H152.99L170.209 270H158.893L146.381 231.426H145.991L133.455 270ZM132.747 250.347H159.478V258.599H132.747V250.347Z" fill="black"/>
<path d="M218 220V270H208.878L187.148 238.53H186.782V270H176.221V220H185.489L207.049 251.445H207.488V220H218Z" fill="black"/>
<path d="M62 90.6673V66.3327H70.9751C73.0502 66.3327 74.7536 66.6575 76.0851 67.307C77.4167 67.9487 78.4024 68.8319 79.0422 69.9568C79.6821 71.0816 80.002 72.3609 80.002 73.7947C80.002 75.2285 79.6821 76.4998 79.0422 77.6088C78.4024 78.7178 77.421 79.5892 76.0981 80.2229C74.7752 80.8487 73.0848 81.1616 71.0269 81.1616H63.7639V78.5H70.9232C72.3412 78.5 73.4825 78.3099 74.3472 77.9297C75.2205 77.5494 75.8517 77.0108 76.2408 76.3137C76.6385 75.6087 76.8374 74.769 76.8374 73.7947C76.8374 72.8203 76.6385 71.9688 76.2408 71.24C75.843 70.5112 75.2075 69.9488 74.3342 69.5528C73.4609 69.1488 72.3066 68.9468 70.8713 68.9468H65.2165V90.6673H62ZM74.5028 79.7357L81.0396 90.6673H77.3043L70.8713 79.7357H74.5028Z" fill="black"/>
<path d="M95.6338 90.6673V66.3327H111.664V68.9468H98.8503V77.1692H110.834V79.7833H98.8503V88.0532H111.872V90.6673H95.6338Z" fill="black"/>
<path d="M128.823 90.6673H125.451L135.204 66.3327H138.525L148.278 90.6673H144.906L136.968 70.1825H136.761L128.823 90.6673ZM130.068 81.1616H143.661V83.7757H130.068V81.1616Z" fill="black"/>
<path d="M184.061 73.9373H180.845C180.655 73.0897 180.322 72.3451 179.846 71.7034C179.379 71.0618 178.809 70.5231 178.134 70.0875C177.468 69.6439 176.729 69.3112 175.916 69.0894C175.104 68.8676 174.256 68.7567 173.374 68.7567C171.766 68.7567 170.309 69.129 169.004 69.8736C167.707 70.6182 166.673 71.7153 165.904 73.1649C165.143 74.6145 164.762 76.3929 164.762 78.5C164.762 80.6071 165.143 82.3855 165.904 83.8351C166.673 85.2847 167.707 86.3818 169.004 87.1264C170.309 87.871 171.766 88.2433 173.374 88.2433C174.256 88.2433 175.104 88.1324 175.916 87.9106C176.729 87.6888 177.468 87.3601 178.134 86.9244C178.809 86.4808 179.379 85.9382 179.846 85.2966C180.322 84.647 180.655 83.9024 180.845 83.0627H184.061C183.819 84.3064 183.378 85.4194 182.739 86.4016C182.099 87.3839 181.303 88.2196 180.352 88.9087C179.401 89.59 178.333 90.1088 177.149 90.4653C175.973 90.8218 174.715 91 173.374 91C171.109 91 169.094 90.493 167.33 89.4791C165.567 88.4651 164.179 87.0234 163.167 85.154C162.156 83.2845 161.65 81.0665 161.65 78.5C161.65 75.9335 162.156 73.7155 163.167 71.846C164.179 69.9766 165.567 68.5349 167.33 67.5209C169.094 66.507 171.109 66 173.374 66C174.715 66 175.973 66.1782 177.149 66.5347C178.333 66.8912 179.401 67.414 180.352 68.1031C181.303 68.7844 182.099 69.6161 182.739 70.5984C183.378 71.5727 183.819 72.6857 184.061 73.9373Z" fill="black"/>
<path d="M198.078 68.9468V66.3327H218V68.9468H209.647V90.6673H206.431V68.9468H198.078Z" fill="black"/>
</g>
<defs>
<clipPath id="clip0_101_2">
<rect width="281" height="420" fill="white"/>
</clipPath>
</defs>
</svg>
